{"title":"My dads hot girlfriend - Nicole Aniston threesome","uid":11039015,"size":188226517,"categoryP":"porn","categoryS":"movie_clips","magnet":"?xt=urn:btih:de80b3287e75ec4d6524e77164bb2d68ed3b4fbd&amp;dn=My+dads+hot+girlfriend+-+Nicole+Aniston+threesome&amp;tr=udp%3A%2F%2Ftracker.openbittorrent.com%3A80&amp;tr=udp%3A%2F%2Fopen.demonii.com%3A1337&amp;tr=udp%3A%2F%2Ftracker.coppersurfer.tk%3A6969&amp;tr=udp%3A%2F%2Fexodus.desync.com%3A6969","seeders":1,"leechers":1,"uploader":"supertongo","files":2,"time":1410827705,"description":"Video with ipod/psp/mobile compatible resolution\n\n:::Media info:::\n\nGeneral\nFormat                         : MPEG-4\nFormat profile                 : Base Media / Version 2\nCodec ID                       : mp42\nFile size                      : 179 MiB\nDuration                       : 32mn 2s\nOverall bit rate               : 783 Kbps\nEncoded date                   : UTC 2011-12-20 10:54:34\nTagged date                    : UTC 2011-12-20 10:54:34\n\nVideo\nID                             : 1\nFormat                         : AVC\nFormat/Info                    : Advanced Video Codec\nFormat profile                 : &lt;a class=&quot;__cf_email__&quot; href=&quot;/cdn-cgi/l/email-protection&quot; data-cfemail=&quot;400d21292e000c726e71&quot;&gt;[email&amp;#160;protected]&lt;/a&gt;&lt;script cf-hash='f9e31' type=&quot;text/javascript&quot;&gt;\n/* &lt;![CDATA[ */!function(){try{var t=&quot;currentScript&quot;in document?document.currentScript:function(){for(var t=document.getElementsByTagName(&quot;script&quot;),e=t.length;e--;)if(t[e].getAttribute(&quot;cf-hash&quot;))return t[e]}();if(t&amp;&amp;t.previousSibling){var e,r,n,i,c=t.previousSibling,a=c.getAttribute(&quot;data-cfemail&quot;);if(a){for(e=&quot;&quot;,r=parseInt(a.substr(0,2),16),n=2;a.length-n;n+=2)i=parseInt(a.substr(n,2),16)^r,e+=String.fromCharCode(i);e=document.createTextNode(e),c.parentNode.replaceChild(e,c)}}}catch(u){}}();/* ]]&gt; */&lt;/script&gt;\nFormat settings, CABAC         : Yes\nFormat settings, ReFrames      : 2 frames\nCodec ID                       : avc1\nCodec ID/Info                  : Advanced Video Coding\nDuration                       : 32mn 2s\nBit rate                       : 650 Kbps\nWidth                          : 480 pixels\nHeight                         : 272 pixels\nDisplay aspect ratio           : 16:9\nOriginal display aspect ratio  : 16:9\nFrame rate mode                : Constant\nFrame rate                     : 29.970 fps\nStandard                       : NTSC\nColor space                    : YUV\nChroma subsampling             : 4:2:0\nBit depth                      : 8 bits\nScan type                      : Progressive\nBits/(Pixel*Frame)             : 0.166\nStream size                    : 149 MiB (83%)\nLanguage                       : English\nEncoded date                   : UTC 2011-12-20 10:54:34\nTagged date                    : UTC 2011-12-20 10:54:34\n\nAudio\nID                             : 2\nFormat                         : AAC\nFormat/Info                    : Advanced Audio Codec\nFormat profile                 : LC\nCodec ID                       : 40\nDuration                       : 32mn 2s\nSource duration                : 32mn 2s\nBit rate mode                  : Constant\nBit rate                       : 128 Kbps\nChannel(s)                     : 2 channels\nChannel positions              : Front: L R\nSampling rate                  : 48.0 KHz\nCompression mode               : Lossy\nStream size                    : 29.5 MiB (16%)\nSource stream size             : 29.5 MiB (16%)\nLanguage                       : English\nEncoded date                   : UTC 2011-12-20 10:54:34\nTagged date                    : UTC 2011-12-20 10:54:34\n\n\n &lt;a href=&quot;\nhttp://bayimg.com/LaanAAAgg&quot; rel=&quot;nofollow&quot; target=&quot;_NEW&quot;&gt;\nhttp://bayimg.com/LaanAAAgg&lt;/a&gt;","torrent":{"xt":"urn:btih:de80b3287e75ec4d6524e77164bb2d68ed3b4fbd","amp;dn":"My+dads+hot+girlfriend+-+Nicole+Aniston+threesome","amp;tr":["udp%3A%2F%2Ftracker.openbittorrent.com%3A80","udp%3A%2F%2Fopen.demonii.com%3A1337","udp%3A%2F%2Ftracker.coppersurfer.tk%3A6969","udp%3A%2F%2Fexodus.desync.com%3A6969"],"infoHash":"de80b3287e75ec4d6524e77164bb2d68ed3b4fbd","infoHashBuffer":{"type":"Buffer","data":[222,128,179,40,126,117,236,77,101,36,231,113,100,187,45,104,237,59,79,189]},"announce":[],"urlList":[]}}